<svg width="16" height="16" viewBox="0 0 16 16" fill="none" xmlns="http://www.w3.org/2000/svg">
<path d="M4.5 6.5C5.05 6.5 5.5 5.83 5.5 5C5.5 4.17 5.05 3.5 4.5 3.5C3.95 3.5 3.5 4.17 3.5 5C3.5 5.83 3.95 6.5 4.5 6.5Z" stroke="#9D4A06" stroke-width="1.5" stroke-linecap="round" stroke-linejoin="round"/>
<path d="M11.5 6.5C12.05 6.5 12.5 5.83 12.5 5C12.5 4.17 12.05 3.5 11.5 3.5C10.95 3.5 10.5 4.17 10.5 5C10.5 5.83 10.95 6.5 11.5 6.5Z" stroke="#9D4A06" stroke-width="1.5" stroke-linecap="round" stroke-linejoin="round"/>
<path d="M6.5 5.5C7.05 5.5 7.5 4.83 7.5 4C7.5 3.17 7.05 2.5 6.5 2.5C5.95 2.5 5.5 3.17 5.5 4C5.5 4.83 5.95 5.5 6.5 5.5Z" stroke="#9D4A06" stroke-width="1.5" stroke-linecap="round" stroke-linejoin="round"/>
<path d="M9.5 5.5C10.05 5.5 10.5 4.83 10.5 4C10.5 3.17 10.05 2.5 9.5 2.5C8.95 2.5 8.5 3.17 8.5 4C8.5 4.83 8.95 5.5 9.5 5.5Z" stroke="#9D4A06" stroke-width="1.5" stroke-linecap="round" stroke-linejoin="round"/>
<path d="M8 7.5C5.5 7.5 3.5 9 4 11.5C4.5 13.5 6 14 8 14C10 14 11.5 13.5 12 11.5C12.5 9 10.5 7.5 8 7.5Z" stroke="#9D4A06" stroke-width="1.5" stroke-linecap="round" stroke-linejoin="round"/>
</svg>
